# xmcd
#
# Track frame offsets: 
#        150
#        39855
#        56422
#        69112
#        91762
#        117326
#        135257
#        148505
#        163581
#        185645
#        203142
#        245924
#        296313
#        323654
#
# Disc length: 4507 seconds
#
# Revision: 1
# Processed by: cddbd v1.5.2PL0 Copyright (c) Steve Scherf et al.
# Submitted via: ExactAudioCopy v0.99pb4
#
DISCID=bc11990e
DTITLE=The Dave Brubeck Quartet - Take Five [CD05)
DYEAR=1956
DGENRE=Jazz
TTITLE0=Love Walked In
TTITLE1=Swing Bells
TTITLE2=Walkin' Line
TTITLE3=In Your Own Sweet Way
TTITLE4=Two-Part Contention
TTITLE5=Weep No More
TTITLE6=The Duke
TTITLE7=When I Was Young
TTITLE8=One Moment Worth Years
TTITLE9=The Waltz
TTITLE10=In Your Own Sweet Way
TTITLE11=Two Part Contention
TTITLE12=Take The ,A' Train
TTITLE13=I'm In A Dancing Mood
EXTD=
EXTT0=
EXTT1=
EXTT2=
EXTT3=
EXTT4=
EXTT5=
EXTT6=
EXTT7=
EXTT8=
EXTT9=
EXTT10=
EXTT11=
EXTT12=
EXTT13=
PLAYORDER=
